<svg xmlns="http://www.w3.org/2000/svg" width="778.75" height="584">
<defs><marker id="arrow-filled" refX="6" refY="3" markerWidth="6" markerHeight="6" orient="auto"><path d="M0,0 6,3 0,6z" style="stroke: none; fill: black;"></path></marker><marker id="arrow-open" refX="6" refY="3" markerWidth="6" markerHeight="6" orient="auto"><path d="M0,0 6,3 0,6" style="stroke-width: 1; fill: none; stroke: black;"></path></marker></defs><rect width="96.5" height="38" style="stroke-width: 1; fill: none; stroke: black;" x="10" y="20"></rect><g><text fill="black" font-family="Helvetica,sans-Serif" x="58.25" y="39" style="text-anchor: middle; alignment-baseline: central;">:Operator</text></g><rect width="96.5" height="38" style="stroke-width: 1; fill: none; stroke: black;" x="10" y="526"></rect><g><text fill="black" font-family="Helvetica,sans-Serif" x="58.25" y="545" style="text-anchor: middle; alignment-baseline: central;">:Operator</text></g><path d="M58.25,58 v468" style="stroke-width: 1; fill: none; stroke: black;"></path><rect width="139" height="38" style="stroke-width: 1; fill: none; stroke: black;" x="280.75" y="20"></rect><g><text fill="black" font-family="Helvetica,sans-Serif" x="350.25" y="39" style="text-anchor: middle; alignment-baseline: central;">:GatingNft1155</text></g><rect width="139" height="38" style="stroke-width: 1; fill: none; stroke: black;" x="280.75" y="526"></rect><g><text fill="black" font-family="Helvetica,sans-Serif" x="350.25" y="545" style="text-anchor: middle; alignment-baseline: central;">:GatingNft1155</text></g><path d="M350.25,58 v468" style="stroke-width: 1; fill: none; stroke: black;"></path><g><text fill="black" font-family="Helvetica,sans-Serif" x="204.25" y="83" style="text-anchor: middle; alignment-baseline: central;">mint(self, serviceID, numTokens)</text></g><path d="M58.25,96 h292" style="stroke-width: 1; fill: none; stroke: black;" marker-end="url(#arrow-filled)"></path><path d="M234.25,116 L234.25,123 L241.25,123 L234.25,116 L78.25,116 L78.25,198 L241.25,198 L241.25,123 Z" style="stroke-width: 1; fill: cornsilk; stroke: black;"></path><g><text fill="black" font-family="Helvetica,sans-Serif" x="159.75" y="130" style="text-anchor: middle; alignment-baseline: central;">First call to mint</text><text fill="black" font-family="Helvetica,sans-Serif" x="159.75" y="148" style="text-anchor: middle; alignment-baseline: central;">creates</text><text fill="black" font-family="Helvetica,sans-Serif" x="159.75" y="166" style="text-anchor: middle; alignment-baseline: central;">LighworkerDAO and</text><text fill="black" font-family="Helvetica,sans-Serif" x="159.75" y="184" style="text-anchor: middle; alignment-baseline: central;">reward Mgr</text></g><g><text fill="black" font-family="Helvetica,sans-Serif" x="473" y="227" style="text-anchor: middle; alignment-baseline: central;">rewardMgr=new RewardMgr</text></g><path d="M350.25,213 C390.25,213 390.25,246 350.25,246" style="stroke-width: 1; fill: none; stroke: black;" marker-end="url(#arrow-filled)"></path><g><text fill="black" font-family="Helvetica,sans-Serif" x="519.75" y="265" style="text-anchor: middle; alignment-baseline: central;">dao=new LightWorkerDao(rewardMgr))</text></g><path d="M350.25,251 C390.25,251 390.25,284 350.25,284" style="stroke-width: 1; fill: none; stroke: black;" marker-end="url(#arrow-filled)"></path><g><text fill="black" font-family="Helvetica,sans-Serif" x="468.75" y="303" style="text-anchor: middle; alignment-baseline: central;">setApprovalForAll(dao)</text></g><path d="M350.25,289 C390.25,289 390.25,322 350.25,322" style="stroke-width: 1; fill: none; stroke: black;" marker-end="url(#arrow-filled)"></path><g><text fill="black" font-family="Helvetica,sans-Serif" x="204.25" y="337" style="text-anchor: middle; alignment-baseline: central;">mint(self, serviceID, numTokens)</text></g><path d="M58.25,350 h292" style="stroke-width: 1; fill: none; stroke: black;" marker-end="url(#arrow-filled)"></path><path d="M242.75,370 L242.75,377 L249.75,377 L242.75,370 L78.25,370 L78.25,506 L249.75,506 L249.75,377 Z" style="stroke-width: 1; fill: cornsilk; stroke: black;"></path><g><text fill="black" font-family="Helvetica,sans-Serif" x="164" y="384" style="text-anchor: middle; alignment-baseline: central;">Subsequent calls to</text><text fill="black" font-family="Helvetica,sans-Serif" x="164" y="402" style="text-anchor: middle; alignment-baseline: central;">mint for a tokenID,</text><text fill="black" font-family="Helvetica,sans-Serif" x="164" y="420" style="text-anchor: middle; alignment-baseline: central;">increases amount. </text><text fill="black" font-family="Helvetica,sans-Serif" x="164" y="438" style="text-anchor: middle; alignment-baseline: central;">Only operator of</text><text fill="black" font-family="Helvetica,sans-Serif" x="164" y="456" style="text-anchor: middle; alignment-baseline: central;">serviceID(tokenID)</text><text fill="black" font-family="Helvetica,sans-Serif" x="164" y="474" style="text-anchor: middle; alignment-baseline: central;">is allowed  to</text><text fill="black" font-family="Helvetica,sans-Serif" x="164" y="492" style="text-anchor: middle; alignment-baseline: central;">increase</text></g></svg>